<svg width="32" height="32" viewBox="0 0 32 32" fill="none" xmlns="http://www.w3.org/2000/svg">
  <!-- Flower Petals -->
  <path d="M16 8L18 2C17 3 15 3 14 2L16 8" fill="url(#petal-gradient)" transform="rotate(0 16 16)" />
  <path d="M16 8L18 2C17 3 15 3 14 2L16 8" fill="url(#petal-gradient)" transform="rotate(60 16 16)" />
  <path d="M16 8L18 2C17 3 15 3 14 2L16 8" fill="url(#petal-gradient)" transform="rotate(120 16 16)" />
  <path d="M16 8L18 2C17 3 15 3 14 2L16 8" fill="url(#petal-gradient)" transform="rotate(180 16 16)" />
  <path d="M16 8L18 2C17 3 15 3 14 2L16 8" fill="url(#petal-gradient)" transform="rotate(240 16 16)" />
  <path d="M16 8L18 2C17 3 15 3 14 2L16 8" fill="url(#petal-gradient)" transform="rotate(300 16 16)" />
  
  <!-- Center Circle -->
  <circle cx="16" cy="16" r="3" fill="#E84CA4"/>
  
  <!-- Gradient Definition -->
  <defs>
    <linearGradient id="petal-gradient" x1="14" y1="2" x2="18" y2="8" gradientUnits="userSpaceOnUse">
      <stop offset="0%" stopColor="#E84CA4"/>
      <stop offset="100%" stopColor="#342074"/>
    </linearGradient>
  </defs>
</svg> 