<svg width="40" height="40" viewBox="0 0 40 40" fill="none"
    xmlns="http://www.w3.org/2000/svg" class="mr-2">
    <g filter="url(#glow)">
        <path d="M20 20L23 8C21 10 17 10 15 8L18 20" fill="url(#petal-gradient)" transform="rotate(0 20 20)" opacity="0.9"></path>
        <path d="M20 20L23 8C21 10 17 10 15 8L18 20" fill="url(#petal-gradient)" transform="rotate(60 20 20)" opacity="0.9"></path>
        <path d="M20 20L23 8C21 10 17 10 15 8L18 20" fill="url(#petal-gradient)" transform="rotate(120 20 20)" opacity="0.9"></path>
        <path d="M20 20L23 8C21 10 17 10 15 8L18 20" fill="url(#petal-gradient)" transform="rotate(180 20 20)" opacity="0.9"></path>
        <path d="M20 20L23 8C21 10 17 10 15 8L18 20" fill="url(#petal-gradient)" transform="rotate(240 20 20)" opacity="0.9"></path>
        <path d="M20 20L23 8C21 10 17 10 15 8L18 20" fill="url(#petal-gradient)" transform="rotate(300 20 20)" opacity="0.9"></path>
        <circle cx="20" cy="20" r="5" fill="#E84CA4" data-darkreader-inline-fill="" style="--darkreader-inline-fill: #ff6ad2;"></circle>
    </g>
    <defs>
        <linearGradient id="petal-gradient" x1="15" y1="8" x2="23" y2="20" gradientUnits="userSpaceOnUse">
            <stop offset="0%" stop-color="#E84CA4" data-darkreader-inline-stopcolor="" style="--darkreader-inline-stopcolor: #bf1977;"></stop>
            <stop offset="100%" stop-color="#342074" data-darkreader-inline-stopcolor="" style="--darkreader-inline-stopcolor: #352174;"></stop>
        </linearGradient>
        <filter id="glow" x="-8" y="-8" width="56" height="56" filterUnits="userSpaceOnUse">
            <feGaussianBlur stdDeviation="2" result="blur"></feGaussianBlur>
            <feComposite in="SourceGraphic" in2="blur" operator="over"></feComposite>
        </filter>
    </defs>
</svg>